<svg xmlns="http://www.w3.org/2000/svg" version="1.1" xmlns:xlink="http://www.w3.org/1999/xlink" xmlns:svgjs="http://svgjs.com/svgjs" width="1440" height="560" preserveAspectRatio="none" viewBox="0 0 1440 560"><g mask="url(&quot;#SvgjsMask1001&quot;)" fill="none"><path d="M487.58 604.59C575.74 604.25 561.88 538.88 833.33 535.23 1104.78 531.58 1340.87 287.12 1524.83 283.23" stroke="rgba(51,121,194,0.58)" stroke-width="2"></path><path d="M312.07 642.52C519.87 619.4 645.04 164.55 996.82 162.37 1348.6 160.19 1505.95 318.17 1681.57 319.17" stroke="rgba(51,121,194,0.58)" stroke-width="2"></path><path d="M115.24 596.52C246.56 585.27 332.51 317.94 561.94 316.53 791.37 315.12 785.28 386.53 1008.63 386.53 1231.98 386.53 1342.29 316.74 1455.33 316.53" stroke="rgba(51,121,194,0.58)" stroke-width="2"></path><path d="M539.09 614.74C704.92 601.99 793.44 286.88 1109.77 272.85 1426.11 258.82 1528.71 68.82 1680.46 65.65" stroke="rgba(51,121,194,0.58)" stroke-width="2"></path><path d="M374.31 643.55C488.84 627.13 432.45 373.17 738.16 357.55 1043.87 341.93 1271.97 93 1465.86 88.75" stroke="rgba(51,121,194,0.58)" stroke-width="2"></path></g><defs><mask id="SvgjsMask1001"><rect width="1440" height="560" fill="#ffffff"></rect></mask></defs></svg>